# xmcd CD database file
#
# Track frame offsets:
#	150
#	13785
#	28601
#	43149
#	58950
#	72114
#	88768
#	99387
#	111905
#	125267
#	141294
#	165138
#	179345
#	194290
#	215654
#	231436
#	243597
#	258052
#	273321
#	288394
#	307122
#	319403
#	337718
#
# Disc length: 4709 seconds
#
# Revision: 0
# Processed by: cddbd v1.5.2PL0 Copyright (c) Steve Scherf et al.
# Submitted via: CDex 1.51
#
DISCID=54126317
DTITLE=Various Artist - Festa do Peão de Americana 2011 (Jubileu de Prata)
DYEAR=2011
DGENRE=Country
TTITLE0=Fernando and Sorocaba - To passando mal
TTITLE1=Gusttavo Lima - Inventor dos Amores
TTITLE2=Jorge and Mateus - Chave
TTITLE3=Luan Santana - Amar não é pecado
TTITLE4=João Bosco and Vinicius - Chuva
TTITLE5=João Carreiro and Capataz - É pra cabar
TTITLE6=Guilherme and Santiago - E daí?
TTITLE7=Michel Teló - Se Intrometeu
TTITLE8=Victo and Léo - Boa Sorte pra você
TTITLE9=Paula Fernandes - Pra Você
TTITLE10=Chitãozinho and Xororó - Evidências
TTITLE11=Munhoz and Mariano - Sonho bom
TTITLE12=Exaltasamba -  Ta vendo aquela lua
TTITLE13=Jota Quest - Dias Melhores
TTITLE14=Capital Inicial - Eu nunca disse adeus
TTITLE15=Marcos and Belutti - Será que vai rolar
TTITLE16=Luan Santana - Um Beijo
TTITLE17=Fernando and Sorocaba - A casa caiu
TTITLE18=João Bosco and Vinicius - Abelha
TTITLE19=Jorge and Mateus - E ai já era
TTITLE20=Guilherme and Santiago - Tá se achando
TTITLE21=Paula Fernandes - Pássaro de fogo
TTITLE22=Gustavo Lima - Eu te quero sim
EXTD=YEAR: 2011
EXTT0=
EXTT1=
EXTT2=
EXTT3=
EXTT4=
EXTT5=
EXTT6=
EXTT7=
EXTT8=
EXTT9=
EXTT10=
EXTT11=
EXTT12=
EXTT13=
EXTT14=
EXTT15=
EXTT16=
EXTT17=
EXTT18=
EXTT19=
EXTT20=
EXTT21=
EXTT22=
PLAYORDER=
